<svg width="41" height="41" viewBox="0 0 41 41" fill="none" xmlns="http://www.w3.org/2000/svg">
<path fill-rule="evenodd" clip-rule="evenodd" d="M22.5461 3.84747L36.7411 18.0425C38.0495 19.3509 38.0495 21.4721 36.7411 22.7804L22.5461 36.9755C21.2377 38.2838 19.1165 38.2838 17.8081 36.9755L3.61309 22.7804C2.30475 21.4721 2.30475 19.3509 3.61309 18.0425L17.8081 3.84747C19.1165 2.53913 21.2377 2.53913 22.5461 3.84747ZM20.1771 25.018C18.9806 25.018 18.0832 25.9025 18.0832 27.0818C18.0832 28.3146 18.9534 29.1991 20.1771 29.1991C21.3736 29.1991 22.271 28.3146 22.271 27.1086C22.271 25.9025 21.3736 25.018 20.1771 25.018ZM21.8522 12.0359H18.502V22.0866H21.8522V12.0359Z" fill="#E2E2E2"/>
<path fill-rule="evenodd" clip-rule="evenodd" d="M20.1769 25.1086C18.9804 25.1086 18.083 25.993 18.083 27.1723C18.083 28.4052 18.9532 29.2896 20.1769 29.2896C21.3734 29.2896 22.2708 28.4052 22.2708 27.1991C22.2708 25.993 21.3734 25.1086 20.1769 25.1086ZM21.852 12.1265H18.5018V22.1771H21.852V12.1265Z" fill="#818181"/>
</svg>